{"title":"Babes - Lucy Li","uid":11102265,"size":142639823,"categoryP":"porn","categoryS":"movie_clips","magnet":"?xt=urn:btih:1f4026865860724e7e54fea2909609ff4d6da69c&amp;dn=Babes+-+Lucy+Li&amp;tr=udp%3A%2F%2Ftracker.openbittorrent.com%3A80&amp;tr=udp%3A%2F%2Fopen.demonii.com%3A1337&amp;tr=udp%3A%2F%2Ftracker.coppersurfer.tk%3A6969&amp;tr=udp%3A%2F%2Fexodus.desync.com%3A6969","seeders":0,"leechers":1,"uploader":"supertongo","files":1,"time":1411684599,"description":"Lucy Li video in ipod/psp compatible resolution\n\n:::media info:::\n\nGeneral\nFormat                         : MPEG-4\nFormat profile                 : Base Media\nCodec ID                       : isom\nFile size                      : 136 MiB\nDuration                       : 33mn 10s\nOverall bit rate               : 573 Kbps\nWriting application            : Lavf55.7.100\n\nVideo\nID                             : 1\nFormat                         : AVC\nFormat/Info                    : Advanced Video Codec\nFormat profile                 : &lt;a class=&quot;__cf_email__&quot; href=&quot;/cdn-cgi/l/email-protection&quot; data-cfemail=&quot;c28fa3abac828ef1ecf2&quot;&gt;[email&amp;#160;protected]&lt;/a&gt;&lt;script data-cfhash='f9e31' type=&quot;text/javascript&quot;&gt;\n/* &lt;![CDATA[ */!function(){try{var t=&quot;currentScript&quot;in document?document.currentScript:function(){for(var t=document.getElementsByTagName(&quot;script&quot;),e=t.length;e--;)if(t[e].getAttribute(&quot;data-cfhash&quot;))return t[e]}();if(t&amp;&amp;t.previousSibling){var e,r,n,i,c=t.previousSibling,a=c.getAttribute(&quot;data-cfemail&quot;);if(a){for(e=&quot;&quot;,r=parseInt(a.substr(0,2),16),n=2;a.length-n;n+=2)i=parseInt(a.substr(n,2),16)^r,e+=String.fromCharCode(i);e=document.createTextNode(e),c.parentNode.replaceChild(e,c)}t.parentNode.removeChild(t);}}catch(u){}}()/* ]]&gt; */&lt;/script&gt;\nFormat settings, CABAC         : Yes\nFormat settings, ReFrames      : 5 frames\nCodec ID                       : avc1\nCodec ID/Info                  : Advanced Video Coding\nDuration                       : 33mn 10s\nBit rate                       : 500 Kbps\nWidth                          : 640 pixels\nHeight                         : 360 pixels\nDisplay aspect ratio           : 16:9\nFrame rate mode                : Constant\nFrame rate                     : 29.970 fps\nColor space                    : YUV\nChroma subsampling             : 4:2:0\nBit depth                      : 8 bits\nScan type                      : Progressive\nBits/(Pixel*Frame)             : 0.072\nStream size                    : 119 MiB (87%)\n\nAudio\nID                             : 2\nFormat                         : AAC\nFormat/Info                    : Advanced Audio Codec\nFormat profile                 : LC\nCodec ID                       : 40\nDuration                       : 33mn 10s\nDuration_LastFrame             : -9ms\nBit rate mode                  : Constant\nBit rate                       : 32.0 Kbps\nChannel(s)                     : 2 channels\nChannel(s)_Original            : 1 channel\nChannel positions              : Front: C\nSampling rate                  : 48.0 KHz\nCompression mode               : Lossy\nStream size                    : 7.59 MiB (6%)\n\n\n\n &lt;a href=&quot;\nhttp://bayimg.com/pAaaEaagk&quot; rel=&quot;nofollow&quot; target=&quot;_NEW&quot;&gt;\nhttp://bayimg.com/pAaaEaagk&lt;/a&gt;","torrent":{"xt":"urn:btih:1f4026865860724e7e54fea2909609ff4d6da69c","amp;dn":"Babes+-+Lucy+Li","amp;tr":["udp%3A%2F%2Ftracker.openbittorrent.com%3A80","udp%3A%2F%2Fopen.demonii.com%3A1337","udp%3A%2F%2Ftracker.coppersurfer.tk%3A6969","udp%3A%2F%2Fexodus.desync.com%3A6969"],"infoHash":"1f4026865860724e7e54fea2909609ff4d6da69c","infoHashBuffer":{"type":"Buffer","data":[31,64,38,134,88,96,114,78,126,84,254,162,144,150,9,255,77,109,166,156]},"announce":[],"urlList":[]}}